<svg id="Layer_1" data-name="Layer 1" xmlns="http://www.w3.org/2000/svg" viewBox="0 0 300 300"><defs><style>.cls-1{fill:#593794;}</style></defs><title>Artboard 1</title><path class="cls-1" d="M163.7,54.08a39,39,0,0,0-44-20.5.39.39,0,0,0,.11.77,30.58,30.58,0,1,1-29,33.25.39.39,0,0,0-.77,0A39,39,0,1,0,163.7,54.08Z"/><path class="cls-1" d="M192.12,124.28a25.42,25.42,0,0,0-46.4-12.19.39.39,0,0,0,.54.54A21.61,21.61,0,1,1,165,151a.39.39,0,0,0,.09.76c.62,0,1.24.07,1.87.06A25.43,25.43,0,0,0,192.12,124.28Z"/><path class="cls-1" d="M162.41,95.72a3.18,3.18,0,1,0,3.15-3.2A3.19,3.19,0,0,0,162.41,95.72Z"/><path class="cls-1" d="M87.6,86.88A3.18,3.18,0,1,0,90.81,90,3.16,3.16,0,0,0,87.6,86.88Z"/><path class="cls-1" d="M175.76,100.3a10.83,10.83,0,0,0,17.4-9.72.39.39,0,0,0-.77,0,8.82,8.82,0,0,1-8.23,7.56,8,8,0,0,1-5.87-1.9,8.78,8.78,0,0,1,1.39-14.6,8.44,8.44,0,0,1,1.63-.66,10.83,10.83,0,0,0-5.55,19.34Z"/><path class="cls-1" d="M159.38,158.79a3.27,3.27,0,1,0-4.46-1.22A3.28,3.28,0,0,0,159.38,158.79Z"/><path class="cls-1" d="M96.51,229.57a13,13,0,0,1-10-4.2,15.29,15.29,0,0,1-3.9-10.81A24.23,24.23,0,0,1,85.84,203a32.22,32.22,0,0,1,8.5-10c5.52-4.29,10.92-6.47,16.07-6.47a12.23,12.23,0,0,1,9.67,4.3c2.46,2.85,3.71,6.61,3.71,11.19,0,7.51-3.48,14.38-10.34,20.41C108.06,227.17,102.36,229.57,96.51,229.57Zm13.13-40.83c-5.18,0-9.75,3.79-13.58,11.27-3.67,7.22-5.53,14.08-5.53,20.4,0,4.67,2,6.94,6.17,6.94,5.24,0,9.68-3.44,13.2-10.22,4-7.72,6-14.91,6-21.35C115.91,191,113.86,188.74,109.64,188.74Z"/><path class="cls-1" d="M171.4,180a5.56,5.56,0,0,0-3.63,1.25,4.63,4.63,0,0,0-1.82,3.69q0,3.18,3.42,3.18a6.77,6.77,0,0,0,1.84-.32,10.5,10.5,0,0,1,1.21-.32c1.18,0,1.77,1.4,1.77,4.19q0,12.56-9.45,27.15t-17.45,14.59q-3.81,0-4.95-3.21a10.1,10.1,0,0,1-.5-3.37q0-5.7,3.55-13.92l7.11-16.46c1.6-3.71,2.41-6.75,2.41-9.11A6.63,6.63,0,0,0,152.5,182a9.23,9.23,0,0,0-5.74-2c-.2,0-.4,0-.61,0a14.27,14.27,0,0,0-5.51,1.16,25,25,0,0,0-7.43,5.06q-2.16,2.06-3.66,3.73a.59.59,0,0,0,.45,1h0a2.47,2.47,0,0,0,1.07-.49q5.83-5.7,9.49-6.8a6.33,6.33,0,0,1,1.32-.27c2.07-.15,3.18.69,3.36,2.52V186a16.17,16.17,0,0,1-1.52,4.65L136.38,208q-4.95,11.64-4.95,17.46a10.29,10.29,0,0,0,.62,3.57A9.49,9.49,0,0,0,135,233.1a13.56,13.56,0,0,0,9,3,17.8,17.8,0,0,0,2.62-.21c.25,0,.5,0,.76,0a13.68,13.68,0,0,0,6.93-3,38.82,38.82,0,0,0,9.23-8.58,64,64,0,0,0,13-30.49,50.8,50.8,0,0,0,.45-6.69Q177,180.08,171.4,180Z"/><path class="cls-1" d="M238.75,183.41a13,13,0,0,0,1-2.66c0-.59-.25-.88-.76-.88a1.92,1.92,0,0,0-.89.29,12.17,12.17,0,0,1-4.31.6,10.88,10.88,0,0,1-1.78-.26,11.91,11.91,0,0,0-1.52-.25c-.51,0-1.1.68-1.78,2L225.55,189q-1.14-9.13-10.66-9.13-9.13,0-20,9.62a61.33,61.33,0,0,0-11.79,13.94c-.35.58-.7,1.17-1,1.76q-4.49,8-4.8,14.81c0,.34,0,.68,0,1a14.74,14.74,0,0,0,4.19,10.83,14.08,14.08,0,0,0,1.22,1.1,12.77,12.77,0,0,0,1.85,1.25,15.3,15.3,0,0,0,7.71,1.89q10.53,0,18.53-11.68a13.6,13.6,0,0,0-.89,4.44,6,6,0,0,0,2.47,4.95,10.22,10.22,0,0,0,6.41,1.91,17.61,17.61,0,0,0,13.32-6q2.79-3,2.79-4.44a.45.45,0,0,0-.5-.51c-.34,0-.85.48-1.53,1.42q-5,6.84-9.89,6.83c-2.2,0-3.3-1.09-3.3-3.29,0-1.94.8-4.73,2.41-8.35Zm-26.52,34.05a36,36,0,0,1-7.93,11.14q-4.76,4.44-8.82,4.43-4.95,0-6.45-4.18a12.6,12.6,0,0,1-.64-3.8c0-.21,0-.41,0-.62q0-7.1,4.06-16.52A79.26,79.26,0,0,1,203.22,190q5.84-7.47,12.18-7.47a8.09,8.09,0,0,1,6,2.41,8.68,8.68,0,0,1,2.34,6.33,14.7,14.7,0,0,1-1.64,4.93Z"/><path class="cls-1" d="M279.7,180q-10.67,0-24.23,11.65Q240,204.93,240,219.11a15.66,15.66,0,0,0,5.33,12.16q5.33,4.8,13.57,4.81a24.09,24.09,0,0,0,14.21-4.9q6-4.27,6-7.16a.56.56,0,0,0-.64-.63c-.34,0-1.06.58-2.16,1.75q-7.35,8-15.09,8-10,0-10-11.24,0-8.34,4.7-18.07a71.85,71.85,0,0,0,9,.63q11.28,0,18.65-4.5t7.36-11.36Q290.87,180,279.7,180Zm-5.58,18a25.31,25.31,0,0,1-13.83,4.32c-1.27,0-2.41-.05-3.43-.13q6-11,13.07-16.62a13,13,0,0,1,8-3.05c2.62,0,3.94,1.31,3.94,3.94Q281.86,193.19,274.12,198Z"/><path class="cls-1" d="M14.41,199a3.53,3.53,0,1,0-4.81-1.31A3.53,3.53,0,0,0,14.41,199Z"/><path class="cls-1" d="M283.61,219a3.53,3.53,0,1,0-4.82-1.31A3.52,3.52,0,0,0,283.61,219Z"/><path class="cls-1" d="M76.2,226.72a2.31,2.31,0,0,0-1.1.4q-7.45,6.24-11.31,6.24c-2.12,0-3.17-1-3.17-2.86q0-1.5,1.9-5.86l11-24.94q3.52-8,3.53-11.31a10.14,10.14,0,0,0-3.39-7.84,12.67,12.67,0,0,0-8.82-3.07q-9.36,0-19.39,10.79c-.51.56-1,1-1.38,1.51a26.11,26.11,0,0,0,2-7.3,10.44,10.44,0,0,0,.09-1.09,7.23,7.23,0,0,0-.73-3.26,6.71,6.71,0,0,0-1.79-2.28A9.93,9.93,0,0,0,37,173.73q-6.61,0-13.5,6.49-7.29,6.89-7.29,9.8c0,.62.4.93,1.19.93s1.37-.67,2-2a26.66,26.66,0,0,1,6.42-7.88,28.73,28.73,0,0,1,2.76-2.16l.05,0a8.17,8.17,0,0,1,4.28-1.72c1.81,0,2.84.68,3.1,2a3.52,3.52,0,0,1,.08.75,7.64,7.64,0,0,1-.47,2c-.1.29-.22.61-.35.95-.09.16-.15.29-.26.46l-6.17,14.79-8.17,18.47-3.31,7a18.69,18.69,0,0,0-1,2.72c0,.6.23.9.74.91a1.75,1.75,0,0,0,.89-.27,12.34,12.34,0,0,1,4.33-.47,10.91,10.91,0,0,1,1.77.3,11.93,11.93,0,0,0,1.51.29c.51,0,1.12-.64,1.84-2l2.4-4.75h0l7.43-14.67A61.8,61.8,0,0,1,47.6,189.55q8.4-8.94,14.64-9,4.75,0,4.75,4.64,0,3.13-3.93,12l-10.85,24.4c-1.72,3.9-2.58,6.63-2.58,8.17a5.5,5.5,0,0,0,2.74,4.71,12.33,12.33,0,0,0,7,1.84,23,23,0,0,0,13.15-4.21Q77,229,77,227.39C77,226.94,76.75,226.72,76.2,226.72Z"/><path class="cls-1" d="M81.27,255.92h2a5.53,5.53,0,0,1,4.16,1.42,5.67,5.67,0,0,1,1.78,4.2,5.61,5.61,0,0,1-1.72,4.1,5.53,5.53,0,0,1-4.22,1.49h-2Zm2,10.54A5,5,0,0,0,87,265.11a5.06,5.06,0,0,0-.13-7.3,5,5,0,0,0-3.63-1.22H82v9.87Z"/><path class="cls-1" d="M94.64,256.59v4.07h4.52v.67H94.64v5.13h4.64v.67H93.93V255.92h5.35v.67Z"/><path class="cls-1" d="M109.62,257.77a2.56,2.56,0,0,0-2.27-1.33,2.1,2.1,0,0,0-2.11,2.14c0,1.18,1.11,1.67,2,2.1l2.14,1.11a2.46,2.46,0,0,1,1.27,2.23,3.43,3.43,0,0,1-3.5,3.26,3.47,3.47,0,0,1-3.3-2.41l.62-.28a2.86,2.86,0,0,0,2.71,2A2.72,2.72,0,0,0,110,264c0-1.26-1.29-1.8-2.26-2.27l-2-1.07a2.26,2.26,0,0,1-1.16-2,2.74,2.74,0,0,1,2.87-2.84,3.15,3.15,0,0,1,2.74,1.58Z"/><path class="cls-1" d="M116.2,267.13h-.71V255.92h.71Z"/><path class="cls-1" d="M132.09,261.73a4.91,4.91,0,0,1-1.18,3.73,5.77,5.77,0,1,1-4.16-9.69,5.92,5.92,0,0,1,4.86,2.62l-.58.46a5.12,5.12,0,0,0-4.32-2.41,5.21,5.21,0,0,0-5.08,5.09,5.12,5.12,0,0,0,5.08,5.08,5.32,5.32,0,0,0,3.3-1.24,3.76,3.76,0,0,0,1.37-3h-4v-.67Z"/><path class="cls-1" d="M146.92,267.5l-9.41-10v9.63h-.71V255.77l9.41,9.93v-9.78h.71Z"/><path class="cls-1" d="M160.33,257.77a2.54,2.54,0,0,0-2.27-1.33,2.1,2.1,0,0,0-2.11,2.14c0,1.18,1.11,1.67,2,2.1l2.14,1.11a2.45,2.45,0,0,1,1.28,2.23,3.5,3.5,0,0,1-6.81.85l.62-.28a2.86,2.86,0,0,0,2.71,2,2.72,2.72,0,0,0,2.76-2.65c0-1.26-1.29-1.8-2.26-2.27l-2-1.07a2.26,2.26,0,0,1-1.16-2,2.74,2.74,0,0,1,2.87-2.84,3.15,3.15,0,0,1,2.74,1.58Z"/><path class="cls-1" d="M168.7,267.13H168V256.59h-2.89v-.67h6.51v.67h-2.9Z"/><path class="cls-1" d="M182.65,255.92h.72v7a4.36,4.36,0,0,1-.76,3.06,4.21,4.21,0,0,1-6.1,0,4.41,4.41,0,0,1-.75-3.06v-7h.71v6.78a4.55,4.55,0,0,0,.58,2.82,3.43,3.43,0,0,0,5,0,4.55,4.55,0,0,0,.58-2.82Z"/><path class="cls-1" d="M188.64,255.92h2a5.5,5.5,0,0,1,4.16,1.42,5.77,5.77,0,0,1,.06,8.3,5.5,5.5,0,0,1-4.22,1.49h-2Zm2,10.54a5,5,0,0,0,3.76-1.35,5,5,0,0,0,1.48-3.57,4.86,4.86,0,0,0-5.24-5h-1.3v9.87Z"/><path class="cls-1" d="M202,267.13h-.71V255.92H202Z"/><path class="cls-1" d="M218.35,261.53a5.81,5.81,0,1,1-5.81-5.76A5.84,5.84,0,0,1,218.35,261.53Zm-10.91,0a5.1,5.1,0,1,0,5.1-5.09A5.13,5.13,0,0,0,207.44,261.53Z"/></svg>